<svg xmlns="http://www.w3.org/2000/svg" width="1600" height="1000" viewBox="0 0 1600 1000">
<defs>
  <style>
    .bg{fill:#f8f7f1}.line{stroke:#1e2930;stroke-width:5;fill:none}.thin{stroke:#68757b;stroke-width:2;fill:none}.dim{stroke:#879198;stroke-width:1.6;fill:none}.txt{font-family:Arial,sans-serif;fill:#20292f}.h1{font-size:34px;font-weight:700}.h2{font-size:23px;font-weight:700}.lbl{font-size:18px;font-weight:600}.small{font-size:14px}.mono{font-family:monospace;font-size:14px;fill:#536168}.red{stroke:#a23434;fill:none}.blue{stroke:#2a6971;fill:none}.redfill{fill:#a23434}.bluefill{fill:#2a6971}.room{fill:#fffdf7;stroke:#1e2930;stroke-width:5}.zone{fill:#eef1ed;stroke:#1e2930;stroke-width:4}
  </style>
  <marker id="arr" viewBox="0 0 10 10" refX="9" refY="5" markerWidth="7" markerHeight="7" orient="auto-start-reverse"><path d="M0 0L10 5L0 10Z" fill="#879198"/></marker>
  <pattern id="grid" width="25" height="25" patternUnits="userSpaceOnUse"><path d="M25 0H0V25" class="thin" opacity=".16"/></pattern>
</defs>
<rect width="1600" height="1000" class="bg"/><rect width="1600" height="1000" fill="url(#grid)"/>
<rect x="35" y="35" width="1530" height="930" fill="none" stroke="#243039" stroke-width="2"/>
<text x="70" y="92" class="txt h1">HÔTEL LE VAUBERT — PLAN DE CIRCULATION</text>
<text x="70" y="124" class="mono">DOSSIER TRACE 01 · EXTRAIT TECHNIQUE · ÉCHELLE 1:100 · NIVEAU 2 + SERVICE RDC</text>
<line x1="70" y1="150" x2="1530" y2="150" class="thin"/>

<text x="82" y="198" class="txt h2">NIVEAU 2 — AILE NORD</text>
<rect x="90" y="235" width="900" height="560" fill="#fff" stroke="#aeb7ba" stroke-width="2"/>
<rect x="145" y="285" width="240" height="240" class="room"/>
<rect x="385" y="285" width="300" height="240" class="room"/>
<rect x="685" y="285" width="250" height="240" class="room"/>
<text x="250" y="410" class="txt h1">16</text>
<text x="515" y="410" class="txt h1">17</text>
<text x="795" y="410" class="txt h1">18</text>
<text x="430" y="455" class="txt small">CHAMBRE 17 · PORTE CLIENT + PORTE SERVICE</text>

<rect x="145" y="525" width="790" height="155" class="zone"/>
<text x="435" y="610" class="txt h2">COULOIR CLIENT</text>
<line x1="490" y1="525" x2="575" y2="525" stroke="#f8f7f1" stroke-width="14"/>
<path d="M490 525V450A75 75 0 0 1 565 525" class="thin"/>
<text x="458" y="704" class="txt small">PORTE PRINCIPALE 17</text>

<rect x="685" y="220" width="250" height="65" class="zone"/>
<text x="742" y="260" class="txt lbl">PALIER SERVICE</text>
<rect x="935" y="220" width="55" height="305" class="zone"/>
<g class="thin"><path d="M942 245h40M942 270h40M942 295h40M942 320h40M942 345h40M942 370h40M942 395h40M942 420h40M942 445h40M942 470h40"/></g>
<text x="948" y="505" class="txt small" transform="rotate(-90 948 505)">ESCALIER SERVICE</text>

<line x1="620" y1="285" x2="680" y2="285" stroke="#f8f7f1" stroke-width="14"/>
<path d="M620 285V342A57 57 0 0 0 677 285" class="red" stroke-width="4"/>
<text x="530" y="315" class="txt small" fill="#a23434">PORTE SERVICE</text>

<circle cx="190" cy="735" r="16" class="bluefill"/><path d="M206 729l42-18v48z" class="bluefill"/>
<text x="150" y="780" class="txt lbl" fill="#2a6971">CAMÉRA C2</text>
<path d="M222 735 L520 535 L875 655 Z" fill="#2a6971" fill-opacity=".12" stroke="#2a6971" stroke-width="3" stroke-dasharray="10 8"/>
<text x="245" y="725" class="txt small" fill="#2a6971">champ de vision</text>
<path d="M650 270 C730 185 840 175 950 245" class="red" stroke-width="4" stroke-dasharray="12 9"/>

<line x1="385" y1="265" x2="685" y2="265" class="dim" marker-start="url(#arr)" marker-end="url(#arr)"/>
<text x="510" y="250" class="txt small">5,40 m</text>
<line x1="365" y1="285" x2="365" y2="525" class="dim" marker-start="url(#arr)" marker-end="url(#arr)"/>
<text x="340" y="420" class="txt small" transform="rotate(-90 340 420)">4,30 m</text>

<text x="1050" y="198" class="txt h2">RDC — ZONE DE SERVICE</text>
<rect x="1040" y="235" width="470" height="560" fill="#fff" stroke="#aeb7ba" stroke-width="2"/>
<rect x="1090" y="290" width="370" height="205" class="room"/>
<text x="1184" y="345" class="txt h2">BUREAU DE NUIT</text>
<rect x="1140" y="390" width="150" height="70" fill="#fff" stroke="#1e2930" stroke-width="3"/>
<text x="1160" y="418" class="mono">POSTE DE</text><text x="1160" y="443" class="mono">SECOURS «17»</text>
<circle cx="1270" cy="425" r="9" class="redfill"/>
<text x="1305" y="432" class="txt small" fill="#a23434">libellé PBX ancien</text>

<rect x="1090" y="535" width="170" height="175" class="zone"/>
<text x="1120" y="610" class="txt lbl">MONTE-CHARGE</text>
<text x="1118" y="638" class="mono">bruit audible du bureau</text>
<rect x="1290" y="535" width="170" height="175" class="zone"/>
<text x="1325" y="600" class="txt lbl">ACCÈS BADGE</text>
<text x="1328" y="630" class="mono">porte service</text>
<path d="M1170 535C1220 505 1310 505 1375 535" class="red" stroke-width="3" stroke-dasharray="9 7"/>

<rect x="90" y="830" width="1420" height="95" fill="#fffdf7" stroke="#aeb7ba" stroke-width="2"/>
<circle cx="125" cy="866" r="7" class="bluefill"/><text x="145" y="872" class="txt small">BLEU : champ caméra</text>
<line x1="325" y1="866" x2="385" y2="866" class="red" stroke-width="4" stroke-dasharray="9 7"/><text x="400" y="872" class="txt small">ROUGE : circulation service / hors champ</text>
<text x="760" y="862" class="txt small">À RECOUPER : appel 02:14 · badge 02:18 · plan · rapport maintenance</text><text x="760" y="888" class="txt small" fill="#a23434">Le trajet service relie la porte secondaire de la 17 à la zone badge sans passer devant C2.</text>
<text x="1260" y="872" class="txt small">N ↑</text>
<line x1="1265" y1="900" x2="1425" y2="900" class="line"/><line x1="1265" y1="893" x2="1265" y2="907" class="line"/><line x1="1345" y1="893" x2="1345" y2="907" class="line"/><line x1="1425" y1="893" x2="1425" y2="907" class="line"/>
<text x="1258" y="924" class="txt small">0</text><text x="1335" y="924" class="txt small">5 m</text><text x="1410" y="924" class="txt small">10 m</text>
</svg>
